<svg width="16" height="16" viewBox="0 0 16 16" fill="none" xmlns="http://www.w3.org/2000/svg">
<g clip-path="url(#clip0_17_30597)">
<path fill-rule="evenodd" clip-rule="evenodd" d="M5.44202 3.5H12.5C12.8978 3.5 13.2794 3.65804 13.5607 3.93934C13.842 4.22064 14 4.60218 14 5V11C14 11.3978 13.842 11.7794 13.5607 12.0607C13.2794 12.342 12.8978 12.5 12.5 12.5H5.44202C5.21711 12.4999 4.99509 12.4493 4.7924 12.3519C4.5897 12.2544 4.41151 12.1126 4.27102 11.937L1.79602 8.844C1.60419 8.60452 1.49966 8.30684 1.49966 8C1.49966 7.69316 1.60419 7.39548 1.79602 7.156L4.27102 4.063C4.4113 3.88763 4.58917 3.74601 4.7915 3.64856C4.99382 3.55112 5.21545 3.50035 5.44002 3.5H5.44202ZM3.09902 3.126C3.38011 2.77461 3.73665 2.49096 4.14223 2.29604C4.5478 2.10113 4.99204 1.99995 5.44202 2H12.5C13.2957 2 14.0587 2.31607 14.6213 2.87868C15.1839 3.44129 15.5 4.20435 15.5 5V11C15.5 11.7956 15.1839 12.5587 14.6213 13.1213C14.0587 13.6839 13.2957 14 12.5 14H5.44202C4.99204 14 4.5478 13.8989 4.14223 13.704C3.73665 13.509 3.38011 13.2254 3.09902 12.874L0.625019 9.781C0.220435 9.27556 0 8.64743 0 8C0 7.35257 0.220435 6.72444 0.625019 6.219L3.09902 3.126ZM7.28002 5.47C7.13785 5.33752 6.9498 5.2654 6.7555 5.26883C6.5612 5.27225 6.37581 5.35097 6.2384 5.48838C6.10098 5.62579 6.02227 5.81118 6.01884 6.00548C6.01542 6.19978 6.08754 6.38783 6.22002 6.53L7.69002 8L6.22002 9.47C6.14633 9.53866 6.08723 9.62146 6.04624 9.71346C6.00525 9.80546 5.9832 9.90478 5.98143 10.0055C5.97965 10.1062 5.99818 10.2062 6.0359 10.2996C6.07362 10.393 6.12976 10.4778 6.20098 10.549C6.2722 10.6203 6.35703 10.6764 6.45042 10.7141C6.54381 10.7518 6.64384 10.7704 6.74454 10.7686C6.84524 10.7668 6.94456 10.7448 7.03656 10.7038C7.12856 10.6628 7.21136 10.6037 7.28002 10.53L8.75002 9.06L10.22 10.53C10.2887 10.6037 10.3715 10.6628 10.4635 10.7038C10.5555 10.7448 10.6548 10.7668 10.7555 10.7686C10.8562 10.7704 10.9562 10.7518 11.0496 10.7141C11.143 10.6764 11.2278 10.6203 11.2991 10.549C11.3703 10.4778 11.4264 10.393 11.4641 10.2996C11.5019 10.2062 11.5204 10.1062 11.5186 10.0055C11.5168 9.90478 11.4948 9.80546 11.4538 9.71346C11.4128 9.62146 11.3537 9.53866 11.28 9.47L9.81002 8L11.28 6.53C11.4125 6.38783 11.4846 6.19978 11.4812 6.00548C11.4778 5.81118 11.3991 5.62579 11.2616 5.48838C11.1242 5.35097 10.9388 5.27225 10.7445 5.26883C10.5502 5.2654 10.3622 5.33752 10.22 5.47L8.75002 6.94L7.28002 5.47Z" fill="#737172"/>
</g>
<defs>
<clipPath id="clip0_17_30597">
<rect width="16" height="16" fill="white"/>
</clipPath>
</defs>
</svg>
